<?xml version="1.0" encoding="UTF-8"?>
<svg id="Leaves" xmlns="http://www.w3.org/2000/svg" viewBox="0 0 467.99 287.38">
  <defs>
    <style>
      .cls-1 {
        fill: none;
        stroke: #304f73;
        stroke-linecap: round;
        stroke-linejoin: round;
        stroke-width: 4.38px;
      }

      .cls-2 {
        fill: #304f73;
      }
    </style>
  </defs>
  <g>
    <path class="cls-2" d="M130.85,58.34h34.49c2.26,0,4.08,1.84,4.08,4.08v7.17c0,2.26-1.84,4.08-4.08,4.08h-15.73c-2.26,0-4.08,1.84-4.08,4.08v4.14c0,2.26,1.84,4.08,4.08,4.08h14.23c2.26,0,4.08,1.84,4.08,4.08v6.55c0,2.26-1.84,4.08-4.08,4.08h-14.23c-2.26,0-4.08,1.84-4.08,4.08v21.48c0,2.26-1.84,4.08-4.08,4.08h-10.58c-2.26,0-4.08-1.84-4.08-4.08v-63.84c0-2.26,1.84-4.08,4.08-4.08l-.02.03Z"/>
    <path class="cls-2" d="M178.55,75.79h9.98c2.26,0,4.09,1.84,4.09,4.09v31.91c0,4.55,1.2,6.46,4.44,6.46s4.44-1.91,4.44-6.46v-31.91c0-2.26,1.84-4.09,4.09-4.09h9.98c2.26,0,4.09,1.84,4.09,4.09v46.39c0,2.26-1.84,4.09-4.09,4.09h-9.38c-2.26,0-4.09-1.84-4.09-4.09v-2.57h0c-2.32,5.34-7.06,8.07-13.41,8.07-7.96,0-14.23-3.13-14.23-14.83v-37.06c0-2.26,1.84-4.09,4.09-4.09h-.02Z"/>
    <path class="cls-2" d="M231.3,58.34h10c2.26,0,4.08,1.82,4.08,4.08v63.86c0,2.26-1.82,4.08-4.08,4.08h-10c-2.26,0-4.08-1.82-4.08-4.08v-63.86c0-2.26,1.82-4.08,4.08-4.08Z"/>
    <path class="cls-2" d="M257.66,58.34h9.32c2.44,0,4.43,1.97,4.43,4.43v63.18c0,2.44-1.97,4.43-4.43,4.43h-9.32c-2.44,0-4.43-1.97-4.43-4.43v-63.18c0-2.44,1.97-4.43,4.43-4.43Z"/>
    <path class="cls-2" d="M283.25,75.79h8.96c2.38,0,4.29,1.93,4.29,4.29v2.36h.2c2.32-5.34,6.86-8.07,13.22-8.07,7.96,0,14.23,3.13,14.23,14.83v36.85c0,2.38-1.93,4.29-4.29,4.29h-9.56c-2.38,0-4.29-1.93-4.29-4.29v-31.72c0-4.55-1.2-6.46-4.44-6.46s-4.44,1.91-4.44,6.46v31.72c0,2.38-1.93,4.29-4.29,4.29h-9.56c-2.38,0-4.29-1.93-4.29-4.29v-45.97c0-2.38,1.93-4.29,4.29-4.29h-.02Z"/>
    <path class="cls-2" d="M352.01,106.15c-2.26,0-4.08,1.82-4.08,4.08v3.09c0,5.95,2.42,7.36,4.94,7.36s4.35-1.31,4.94-5.72c.29-2.14,2.11-3.76,4.28-3.76h7.8c2.48,0,4.47,2.2,4.11,4.65-1.55,10.34-7.83,15.91-21,15.91-17.45,0-23.2-7.96-23.2-28.65s6.76-28.75,23.2-28.75c14.53,0,21.89,6.46,21.89,26.22v1.23c0,2.38-1.93,4.31-4.31,4.31h-18.55l-.02.03ZM357.92,93.84c0-5.75-1.11-8.37-5.04-8.37s-4.94,2.62-4.94,8.37h0c0,1.34,1.08,2.42,2.42,2.42h5.15c1.34,0,2.42-1.08,2.42-2.42h-.02Z"/>
    <path class="cls-2" d="M390.29,113.41c1.91,0,3.52,1.32,3.99,3.18.21.86.53,1.6.96,2.17.9,1.31,2.21,1.91,3.84,1.91,2.83,0,5.24-1.72,5.24-4.64,0-9.59-26.33-3.93-26.33-24.61,0-9.59,6.86-17.04,21.69-17.04,11.4,0,18.06,4.03,19.93,12.03.62,2.62-1.48,5.12-4.17,5.12h-7.04c-1.96,0-3.78-1.2-4.32-3.09-.68-2.35-2.3-3.03-4.76-2.97s-4.41,1.94-4.37,4.31c.12,8.99,26.33,2.81,26.33,23.74,0,10.6-8.17,18.26-21.89,18.26-13.01,0-19.39-4.64-20.98-13.46-.47-2.54,1.51-4.91,4.11-4.91h7.8-.03Z"/>
    <path class="cls-2" d="M436.76,113.41c2.05,0,3.73,1.43,4.29,3.4.21.75.51,1.43.9,1.94.9,1.31,2.21,1.91,3.84,1.91,2.83,0,5.24-1.72,5.24-4.64,0-9.59-26.33-3.93-26.33-24.61,0-9.59,6.86-17.04,21.69-17.04,11.35,0,18,3.99,19.9,11.92.65,2.68-1.51,5.22-4.26,5.22h-6.92c-1.96,0-3.78-1.2-4.32-3.09-.68-2.35-2.3-3.03-4.76-2.97s-4.41,1.94-4.37,4.31c.12,8.99,26.33,2.81,26.33,23.74,0,10.6-8.17,18.26-21.89,18.26-12.86,0-19.24-4.53-20.92-13.14-.53-2.71,1.61-5.21,4.37-5.21h7.24l-.03-.02Z"/>
  </g>
  <g>
    <path class="cls-2" d="M53.31,45.58c.24,0,.49,0,.73.08,2.27.49,3.81,2.51,3.65,4.87-.16,2.43-2.27,4.38-4.7,4.3-2.27-.08-4.14-1.7-4.46-4.06-.41-2.84,1.78-5.03,4.14-5.19h.73-.08,0Z"/>
    <path class="cls-1" d="M101.59,65.33c-43.42,3.24-47.78,30.26-48.1,38.35-.33-8.09-4.69-35.11-48.1-38.35,0,0-10.33,63.18,47.79,64.14v.02c.11,0,.21,0,.31,0,.11,0,.21,0,.31,0v-.02c58.12-.96,47.79-64.14,47.79-64.14Z"/>
    <path class="cls-2" d="M61.32,71.41s-.62-8.21-7.82-14.33c0,0,0,0-.01,0,0,0-.01,0-.01,0-7.2,6.13-7.82,14.33-7.82,14.33C24.05,51.97,0,59.87,0,59.87l5.38,5.38c48.87,3.37,48.1,38.35,48.1,38.35,0-.01,0-.02,0-.03,0,.01,0,.02,0,.03,0,0-.77-34.97,48.1-38.35l5.38-5.38s-24.05-7.9-45.66,11.54Z"/>
    <path class="cls-1" d="M53.64,89.28c1.14-7.89,5.94-22.05,25.33-28.31,0,0-16.65-21.48-25.48-25.82h0c-8.83,4.35-25.47,25.83-25.47,25.83,19.39,6.25,24.18,20.42,25.33,28.31h.3"/>
  </g>
</svg>